<?xml version="1.0" encoding="UTF-8" standalone="no"?>
<!-- Created with Inkscape (http://www.inkscape.org/) -->

<svg
   xmlns:dc="http://purl.org/dc/elements/1.1/"
   xmlns:cc="http://creativecommons.org/ns#"
   xmlns:rdf="http://www.w3.org/1999/02/22-rdf-syntax-ns#"
   xmlns:svg="http://www.w3.org/2000/svg"
   xmlns="http://www.w3.org/2000/svg"
   xmlns:sodipodi="http://sodipodi.sourceforge.net/DTD/sodipodi-0.dtd"
   xmlns:inkscape="http://www.inkscape.org/namespaces/inkscape"
   width="1052.3622"
   height="744.09448"
   id="svg2"
   version="1.1"
   inkscape:version="0.48.4 r9939"
   sodipodi:docname="example_place_maps.svg"
   inkscape:export-filename="/home/kaiyu/Documents/UW/Research/SaraRobotics/Thesis/Draft/img/example_place_maps.png"
   inkscape:export-xdpi="90"
   inkscape:export-ydpi="90">
  <defs
     id="defs4">
    <inkscape:path-effect
       effect="spiro"
       id="path-effect4230"
       is_visible="true" />
    <inkscape:path-effect
       effect="spiro"
       id="path-effect4226"
       is_visible="true" />
    <inkscape:path-effect
       effect="spiro"
       id="path-effect4222"
       is_visible="true" />
    <inkscape:path-effect
       effect="spiro"
       id="path-effect4218"
       is_visible="true" />
    <inkscape:path-effect
       effect="spiro"
       id="path-effect4214"
       is_visible="true" />
    <inkscape:path-effect
       effect="spiro"
       id="path-effect4210"
       is_visible="true" />
    <inkscape:path-effect
       effect="spiro"
       id="path-effect4206"
       is_visible="true" />
    <inkscape:path-effect
       effect="spiro"
       id="path-effect4202"
       is_visible="true" />
    <inkscape:path-effect
       effect="spiro"
       id="path-effect4198"
       is_visible="true" />
    <inkscape:path-effect
       effect="spiro"
       id="path-effect4194"
       is_visible="true" />
    <inkscape:path-effect
       effect="spiro"
       id="path-effect4190"
       is_visible="true" />
    <inkscape:path-effect
       effect="spiro"
       id="path-effect4062"
       is_visible="true" />
    <inkscape:path-effect
       effect="spiro"
       id="path-effect4058"
       is_visible="true" />
    <inkscape:path-effect
       effect="spiro"
       id="path-effect4054"
       is_visible="true" />
    <inkscape:path-effect
       effect="spiro"
       id="path-effect4050"
       is_visible="true" />
    <inkscape:path-effect
       effect="spiro"
       id="path-effect4046"
       is_visible="true" />
    <inkscape:path-effect
       effect="spiro"
       id="path-effect4042"
       is_visible="true" />
    <inkscape:path-effect
       effect="spiro"
       id="path-effect4038"
       is_visible="true" />
    <inkscape:path-effect
       effect="spiro"
       id="path-effect4034"
       is_visible="true" />
    <inkscape:path-effect
       effect="spiro"
       id="path-effect3821"
       is_visible="true" />
    <inkscape:path-effect
       effect="spiro"
       id="path-effect3817"
       is_visible="true" />
    <inkscape:path-effect
       effect="spiro"
       id="path-effect3813"
       is_visible="true" />
    <inkscape:path-effect
       effect="spiro"
       id="path-effect3809"
       is_visible="true" />
    <inkscape:path-effect
       effect="spiro"
       id="path-effect3805"
       is_visible="true" />
    <inkscape:path-effect
       effect="spiro"
       id="path-effect3801"
       is_visible="true" />
    <inkscape:path-effect
       effect="spiro"
       id="path-effect3797"
       is_visible="true" />
  </defs>
  <sodipodi:namedview
     id="base"
     pagecolor="#ffffff"
     bordercolor="#666666"
     borderopacity="1.0"
     inkscape:pageopacity="0.0"
     inkscape:pageshadow="2"
     inkscape:zoom="0.7"
     inkscape:cx="822.23918"
     inkscape:cy="497.91621"
     inkscape:document-units="px"
     inkscape:current-layer="layer1"
     showgrid="false"
     inkscape:window-width="1366"
     inkscape:window-height="744"
     inkscape:window-x="0"
     inkscape:window-y="24"
     inkscape:window-maximized="1"
     inkscape:object-nodes="false"
     inkscape:snap-object-midpoints="false"
     inkscape:snap-center="false"
     inkscape:snap-nodes="true"
     inkscape:object-paths="true"
     inkscape:snap-intersection-paths="false"
     inkscape:snap-smooth-nodes="false" />
  <metadata
     id="metadata7">
    <rdf:RDF>
      <cc:Work
         rdf:about="">
        <dc:format>image/svg+xml</dc:format>
        <dc:type
           rdf:resource="http://purl.org/dc/dcmitype/StillImage" />
        <dc:title />
      </cc:Work>
    </rdf:RDF>
  </metadata>
  <g
     inkscape:label="Layer 1"
     inkscape:groupmode="layer"
     id="layer1"
     transform="translate(0,-308.2677)">
    <path
       style="fill:none;stroke:#000000;stroke-width:0.99999994px;stroke-linecap:butt;stroke-linejoin:miter;stroke-opacity:1"
       d="m 113.97186,388.51514 23.58787,23.61052 -1.00375,-2.00943"
       id="path3795"
       inkscape:path-effect="#path-effect3797"
       inkscape:original-d="m 113.97186,388.51514 c 23.58787,23.61052 23.58787,23.61052 23.58787,23.61052 l -1.00375,-2.00943"
       inkscape:connector-curvature="0" />
    <path
       style="fill:none;stroke:#000000;stroke-width:0.99999994px;stroke-linecap:butt;stroke-linejoin:miter;stroke-opacity:1"
       d="m 137.55973,446.78786 -30.11219,25.11758"
       id="path3799"
       inkscape:path-effect="#path-effect3801"
       inkscape:original-d="m 137.55973,446.78786 c -26.09722,26.12228 -30.11219,25.11758 -30.11219,25.11758"
       inkscape:connector-curvature="0" />
    <path
       style="fill:none;stroke:#000000;stroke-width:0.99999994px;stroke-linecap:butt;stroke-linejoin:miter;stroke-opacity:1"
       d="m 79.342851,510.58647 -18.758817,32.52241 -4.279154,5.5745"
       id="path3803"
       inkscape:path-effect="#path-effect3805"
       inkscape:original-d="m 79.342851,510.58647 -18.758817,32.52241 -4.279154,5.5745"
       inkscape:connector-curvature="0"
       sodipodi:nodetypes="ccc" />
    <path
       style="fill:none;stroke:#000000;stroke-width:0.99999994px;stroke-linecap:butt;stroke-linejoin:miter;stroke-opacity:1"
       d="m 82.354083,573.38035 60.224337,0"
       id="path3807"
       inkscape:path-effect="#path-effect3809"
       inkscape:original-d="m 82.354083,573.38035 60.224337,0"
       inkscape:connector-curvature="0" />
    <path
       style="fill:none;stroke:#000000;stroke-width:0.99999994px;stroke-linecap:butt;stroke-linejoin:miter;stroke-opacity:1"
       d="m 191.74083,572.83805 47.16709,0"
       id="path3811"
       inkscape:path-effect="#path-effect3813"
       inkscape:original-d="m 191.74083,572.83805 47.16709,0"
       inkscape:connector-curvature="0"
       sodipodi:nodetypes="cc" />
    <path
       style="fill:none;stroke:#000000;stroke-width:0.99999994px;stroke-linecap:butt;stroke-linejoin:miter;stroke-opacity:1"
       d="m 235.32765,511.59594 21.21323,37.97339"
       id="path3815"
       inkscape:path-effect="#path-effect3817"
       inkscape:original-d="m 235.32765,511.59594 21.21323,37.97339"
       inkscape:connector-curvature="0"
       sodipodi:nodetypes="cc" />
    <path
       style="fill:none;stroke:#000000;stroke-width:0.99999994px;stroke-linecap:butt;stroke-linejoin:miter;stroke-opacity:1"
       d="m 204.48678,508.34101 -27.65929,44.66884"
       id="path3819"
       inkscape:path-effect="#path-effect3821"
       inkscape:original-d="m 204.48678,508.34101 -27.65929,44.66884"
       inkscape:connector-curvature="0"
       sodipodi:nodetypes="cc" />
    <g
       id="g3870"
       transform="matrix(1.1060635,0,0,1.1070924,-6.7022045,288.68917)">
      <path
         transform="matrix(0.34835829,0,0,0.34836842,30.169834,-11.16972)"
         d="m 252.53814,238.17923 c 0,34.5893 -28.04017,62.62946 -62.62946,62.62946 -34.5893,0 -62.62946,-28.04016 -62.62946,-62.62946 0,-34.5893 28.04016,-62.62946 62.62946,-62.62946 34.58929,0 62.62946,28.04016 62.62946,62.62946 z"
         sodipodi:ry="62.629459"
         sodipodi:rx="62.629459"
         sodipodi:cy="238.17923"
         sodipodi:cx="189.90868"
         id="path2985"
         style="fill:none;stroke:#000000;stroke-width:5.18818617;stroke-miterlimit:4;stroke-opacity:1;stroke-dasharray:none"
         sodipodi:type="arc" />
      <text
         transform="scale(0.99998548,1.0000145)"
         sodipodi:linespacing="125%"
         id="text3823"
         y="77.252609"
         x="86.374397"
         style="font-size:15.24601936px;font-style:normal;font-weight:normal;line-height:125%;letter-spacing:0px;word-spacing:0px;fill:#000000;fill-opacity:1;stroke:none;font-family:Sans;-inkscape-font-specification:Sans"
         xml:space="preserve"><tspan
           y="77.252609"
           x="86.374397"
           id="tspan3825"
           sodipodi:role="line">Ba</tspan></text>
    </g>
    <g
       id="g4017"
       transform="matrix(1.1060635,0,0,1.1070924,-24.57889,288.68917)">
      <path
         sodipodi:type="arc"
         style="fill:none;stroke:#000000;stroke-width:5.18818617;stroke-miterlimit:4;stroke-opacity:1;stroke-dasharray:none"
         id="path3769"
         sodipodi:cx="189.90868"
         sodipodi:cy="238.17923"
         sodipodi:rx="62.629459"
         sodipodi:ry="62.629459"
         d="m 252.53814,238.17923 c 0,34.5893 -28.04017,62.62946 -62.62946,62.62946 -34.5893,0 -62.62946,-28.04016 -62.62946,-62.62946 0,-34.5893 28.04016,-62.62946 62.62946,-62.62946 34.58929,0 62.62946,28.04016 62.62946,62.62946 z"
         transform="matrix(0.34835829,0,0,0.34836842,95.742465,44.017302)" />
      <text
         transform="scale(0.99998549,1.0000145)"
         sodipodi:linespacing="125%"
         id="text3827"
         y="132.53932"
         x="153.0088"
         style="font-size:15.24601936px;font-style:normal;font-weight:normal;line-height:125%;letter-spacing:0px;word-spacing:0px;fill:#000000;fill-opacity:1;stroke:none;font-family:Sans;-inkscape-font-specification:Sans"
         xml:space="preserve"><tspan
           y="132.53932"
           x="153.0088"
           id="tspan3829"
           sodipodi:role="line">Cr</tspan></text>
    </g>
    <g
       id="g4007"
       transform="matrix(1.1060635,0,0,1.1070924,-20.55863,292.71387)">
      <path
         sodipodi:type="arc"
         style="fill:none;stroke:#000000;stroke-width:5.18818617;stroke-miterlimit:4;stroke-opacity:1;stroke-dasharray:none"
         id="path3773"
         sodipodi:cx="189.90868"
         sodipodi:cy="238.17923"
         sodipodi:rx="62.629459"
         sodipodi:ry="62.629459"
         d="m 252.53814,238.17923 c 0,34.5893 -28.04017,62.62946 -62.62946,62.62946 -34.5893,0 -62.62946,-28.04016 -62.62946,-62.62946 0,-34.5893 28.04016,-62.62946 62.62946,-62.62946 34.58929,0 62.62946,28.04016 62.62946,62.62946 z"
         transform="matrix(0.34835829,0,0,0.34836842,37.990285,96.637482)" />
      <text
         transform="scale(0.99998549,1.0000145)"
         sodipodi:linespacing="125%"
         id="text3831"
         y="185.15874"
         x="95.255791"
         style="font-size:15.24601936px;font-style:normal;font-weight:normal;line-height:125%;letter-spacing:0px;word-spacing:0px;fill:#000000;fill-opacity:1;stroke:none;font-family:Sans;-inkscape-font-specification:Sans"
         xml:space="preserve"><tspan
           y="185.15874"
           x="95.255791"
           id="tspan3833"
           sodipodi:role="line">Cr</tspan></text>
    </g>
    <g
       id="g3997"
       transform="matrix(1.1060635,0,0,1.1070924,-24.57889,288.68917)">
      <path
         sodipodi:type="arc"
         style="fill:none;stroke:#000000;stroke-width:5.18818617;stroke-miterlimit:4;stroke-opacity:1;stroke-dasharray:none"
         id="path3763"
         sodipodi:cx="189.90868"
         sodipodi:cy="238.17923"
         sodipodi:rx="62.629459"
         sodipodi:ry="62.629459"
         d="m 252.53814,238.17923 c 0,34.5893 -28.04017,62.62946 -62.62946,62.62946 -34.5893,0 -62.62946,-28.04016 -62.62946,-62.62946 0,-34.5893 28.04016,-62.62946 62.62946,-62.62946 34.58929,0 62.62946,28.04016 62.62946,62.62946 z"
         transform="matrix(0.34835829,0,0,0.34836842,107.60247,173.6882)" />
      <text
         transform="scale(0.9999855,1.0000145)"
         sodipodi:linespacing="125%"
         id="text3839"
         y="262.34235"
         x="164.50421"
         style="font-size:15.24601936px;font-style:normal;font-weight:normal;line-height:125%;letter-spacing:0px;word-spacing:0px;fill:#000000;fill-opacity:1;stroke:none;font-family:Sans;-inkscape-font-specification:Sans"
         xml:space="preserve"><tspan
           y="262.34235"
           x="164.50421"
           id="tspan3841"
           sodipodi:role="line">Of</tspan></text>
    </g>
    <g
       id="g4012"
       transform="matrix(1.1060635,0,0,1.1070924,-24.57889,298.28617)">
      <path
         sodipodi:type="arc"
         style="fill:none;stroke:#000000;stroke-width:5.18818617;stroke-miterlimit:4;stroke-opacity:1;stroke-dasharray:none"
         id="path3767"
         sodipodi:cx="189.90868"
         sodipodi:cy="238.17923"
         sodipodi:rx="62.629459"
         sodipodi:ry="62.629459"
         d="m 252.53814,238.17923 c 0,34.5893 -28.04017,62.62946 -62.62946,62.62946 -34.5893,0 -62.62946,-28.04016 -62.62946,-62.62946 0,-34.5893 28.04016,-62.62946 62.62946,-62.62946 34.58929,0 62.62946,28.04016 62.62946,62.62946 z"
         transform="matrix(0.34835829,0,0,0.34836842,156.63677,91.604212)" />
      <text
         transform="scale(0.9999855,1.0000145)"
         sodipodi:linespacing="125%"
         id="text3843"
         y="180.25957"
         x="213.53922"
         style="font-size:15.24601936px;font-style:normal;font-weight:normal;line-height:125%;letter-spacing:0px;word-spacing:0px;fill:#000000;fill-opacity:1;stroke:none;font-family:Sans;-inkscape-font-specification:Sans"
         xml:space="preserve"><tspan
           y="180.25957"
           x="213.53922"
           id="tspan3845"
           sodipodi:role="line">Of</tspan></text>
    </g>
    <g
       id="g4002"
       transform="matrix(1.1060635,0,0,1.1070924,-24.57889,288.68917)">
      <path
         transform="matrix(0.34835829,0,0,0.34836842,193.88156,173.6882)"
         d="m 252.53814,238.17923 c 0,34.5893 -28.04017,62.62946 -62.62946,62.62946 -34.5893,0 -62.62946,-28.04016 -62.62946,-62.62946 0,-34.5893 28.04016,-62.62946 62.62946,-62.62946 34.58929,0 62.62946,28.04016 62.62946,62.62946 z"
         sodipodi:ry="62.629459"
         sodipodi:rx="62.629459"
         sodipodi:cy="238.17923"
         sodipodi:cx="189.90868"
         id="path3765"
         style="fill:none;stroke:#000000;stroke-width:5.18818617;stroke-miterlimit:4;stroke-opacity:1;stroke-dasharray:none"
         sodipodi:type="arc" />
      <text
         transform="scale(0.9999855,1.0000145)"
         sodipodi:linespacing="125%"
         id="text3847"
         y="262.34235"
         x="250.78455"
         style="font-size:15.24601936px;font-style:normal;font-weight:normal;line-height:125%;letter-spacing:0px;word-spacing:0px;fill:#000000;fill-opacity:1;stroke:none;font-family:Sans;-inkscape-font-specification:Sans"
         xml:space="preserve"><tspan
           y="262.34235"
           x="250.78455"
           id="tspan3849"
           sodipodi:role="line">Of</tspan></text>
    </g>
    <g
       id="g3875"
       transform="matrix(1.1060635,0,0,1.1070924,561.99987,493.34397)">
      <path
         sodipodi:type="arc"
         style="fill:none;stroke:#000000;stroke-width:5.18818617;stroke-miterlimit:4;stroke-opacity:1;stroke-dasharray:none"
         id="path3877"
         sodipodi:cx="189.90868"
         sodipodi:cy="238.17923"
         sodipodi:rx="62.629459"
         sodipodi:ry="62.629459"
         d="m 252.53814,238.17923 c 0,34.5893 -28.04017,62.62946 -62.62946,62.62946 -34.5893,0 -62.62946,-28.04016 -62.62946,-62.62946 0,-34.5893 28.04016,-62.62946 62.62946,-62.62946 34.58929,0 62.62946,28.04016 62.62946,62.62946 z"
         transform="matrix(0.34835829,0,0,0.34836842,30.169834,-11.16972)" />
      <text
         xml:space="preserve"
         style="font-size:15.24601936px;font-style:normal;font-weight:normal;line-height:125%;letter-spacing:0px;word-spacing:0px;fill:#000000;fill-opacity:1;stroke:none;font-family:Sans;-inkscape-font-specification:Sans"
         x="86.374397"
         y="77.252609"
         id="text3879"
         sodipodi:linespacing="125%"
         transform="scale(0.99998548,1.0000145)"><tspan
           sodipodi:role="line"
           id="tspan3881"
           x="86.374397"
           y="77.252609">Ba</tspan></text>
    </g>
    <g
       id="g3889"
       transform="matrix(1.1060635,0,0,1.1070924,-54.790713,483.69011)">
      <path
         transform="matrix(0.34835829,0,0,0.34836842,404.84914,-2.4497151)"
         d="m 252.53814,238.17923 c 0,34.5893 -28.04017,62.62946 -62.62946,62.62946 -34.5893,0 -62.62946,-28.04016 -62.62946,-62.62946 0,-34.5893 28.04016,-62.62946 62.62946,-62.62946 34.58929,0 62.62946,28.04016 62.62946,62.62946 z"
         sodipodi:ry="62.629459"
         sodipodi:rx="62.629459"
         sodipodi:cy="238.17923"
         sodipodi:cx="189.90868"
         id="path3883"
         style="fill:none;stroke:#000000;stroke-width:5.18818617;stroke-miterlimit:4;stroke-opacity:1;stroke-dasharray:none"
         sodipodi:type="arc" />
      <text
         xml:space="preserve"
         style="font-size:15.24601936px;font-style:normal;font-weight:normal;line-height:125%;letter-spacing:0px;word-spacing:0px;fill:#000000;fill-opacity:1;stroke:none;font-family:Sans;-inkscape-font-specification:Sans"
         x="462.11996"
         y="86.072975"
         id="text3885"
         sodipodi:linespacing="125%"
         transform="scale(0.99998549,1.0000145)"><tspan
           sodipodi:role="line"
           id="tspan3887"
           x="462.11996"
           y="86.072975">Cr</tspan></text>
    </g>
    <g
       id="g3894"
       transform="matrix(1.1060635,0,0,1.1070924,-142.30129,483.69011)">
      <path
         sodipodi:type="arc"
         style="fill:none;stroke:#000000;stroke-width:5.18818617;stroke-miterlimit:4;stroke-opacity:1;stroke-dasharray:none"
         id="path3896"
         sodipodi:cx="189.90868"
         sodipodi:cy="238.17923"
         sodipodi:rx="62.629459"
         sodipodi:ry="62.629459"
         d="m 252.53814,238.17923 c 0,34.5893 -28.04017,62.62946 -62.62946,62.62946 -34.5893,0 -62.62946,-28.04016 -62.62946,-62.62946 0,-34.5893 28.04016,-62.62946 62.62946,-62.62946 34.58929,0 62.62946,28.04016 62.62946,62.62946 z"
         transform="matrix(0.34835829,0,0,0.34836842,404.84914,-2.4497151)" />
      <text
         transform="scale(0.99998549,1.0000145)"
         sodipodi:linespacing="125%"
         id="text3898"
         y="86.072975"
         x="462.11996"
         style="font-size:15.24601936px;font-style:normal;font-weight:normal;line-height:125%;letter-spacing:0px;word-spacing:0px;fill:#000000;fill-opacity:1;stroke:none;font-family:Sans;-inkscape-font-specification:Sans"
         xml:space="preserve"><tspan
           y="86.072975"
           x="462.11996"
           id="tspan3900"
           sodipodi:role="line">Cr</tspan></text>
    </g>
    <g
       id="g3936"
       transform="matrix(1.1060635,0,0,1.1070924,-22.208754,303.19086)">
      <g
         id="g3910"
         transform="translate(-29.457586,89.62368)">
        <path
           transform="matrix(0.34835829,0,0,0.34836842,404.84914,-2.4497151)"
           d="m 252.53814,238.17923 c 0,34.5893 -28.04017,62.62946 -62.62946,62.62946 -34.5893,0 -62.62946,-28.04016 -62.62946,-62.62946 0,-34.5893 28.04016,-62.62946 62.62946,-62.62946 34.58929,0 62.62946,28.04016 62.62946,62.62946 z"
           sodipodi:ry="62.629459"
           sodipodi:rx="62.629459"
           sodipodi:cy="238.17923"
           sodipodi:cx="189.90868"
           id="path3912"
           style="fill:none;stroke:#000000;stroke-width:5.18818617;stroke-miterlimit:4;stroke-opacity:1;stroke-dasharray:none"
           sodipodi:type="arc" />
        <text
           xml:space="preserve"
           style="font-size:15.24601936px;font-style:normal;font-weight:normal;line-height:125%;letter-spacing:0px;word-spacing:0px;fill:#000000;fill-opacity:1;stroke:none;font-family:Sans;-inkscape-font-specification:Sans"
           x="462.11996"
           y="86.072975"
           id="text3914"
           sodipodi:linespacing="125%"
           transform="scale(0.99998549,1.0000145)"><tspan
             sodipodi:role="line"
             id="tspan3916"
             x="462.11996"
             y="86.072975">Cr</tspan></text>
      </g>
    </g>
    <g
       id="g3926"
       transform="matrix(1.1060635,0,0,1.1070924,-26.949028,245.47505)">
      <text
         transform="scale(0.9999855,1.0000145)"
         sodipodi:linespacing="125%"
         id="text3835"
         y="301.24911"
         x="62.74271"
         style="font-size:15.24601936px;font-style:normal;font-weight:normal;line-height:125%;letter-spacing:0px;word-spacing:0px;fill:#000000;fill-opacity:1;stroke:none;font-family:Sans;-inkscape-font-specification:Sans"
         xml:space="preserve"><tspan
           y="301.24911"
           x="62.74271"
           id="tspan3837"
           sodipodi:role="line">Dw</tspan></text>
      <path
         sodipodi:type="arc"
         style="fill:none;stroke:#000000;stroke-width:5.18818617;stroke-miterlimit:4;stroke-opacity:1;stroke-dasharray:none"
         id="path3918"
         sodipodi:cx="189.90868"
         sodipodi:cy="238.17923"
         sodipodi:rx="62.629459"
         sodipodi:ry="62.629459"
         d="m 252.53814,238.17923 c 0,34.5893 -28.04017,62.62946 -62.62946,62.62946 -34.5893,0 -62.62946,-28.04016 -62.62946,-62.62946 0,-34.5893 28.04016,-62.62946 62.62946,-62.62946 34.58929,0 62.62946,28.04016 62.62946,62.62946 z"
         transform="matrix(0.34835829,0,0,0.34836842,9.1141945,212.72209)" />
    </g>
    <g
       id="g3931"
       transform="matrix(1.1060635,0,0,1.1070924,52.514318,460.88361)">
      <text
         xml:space="preserve"
         style="font-size:15.24601936px;font-style:normal;font-weight:normal;line-height:125%;letter-spacing:0px;word-spacing:0px;fill:#000000;fill-opacity:1;stroke:none;font-family:Sans;-inkscape-font-specification:Sans"
         x="460.31992"
         y="106.68049"
         id="text3920"
         sodipodi:linespacing="125%"
         transform="scale(0.9999855,1.0000145)"><tspan
           sodipodi:role="line"
           id="tspan3922"
           x="460.31992"
           y="106.68049">Dw</tspan></text>
      <path
         transform="matrix(0.34835829,0,0,0.34836842,406.68562,18.150659)"
         d="m 252.53814,238.17923 c 0,34.5893 -28.04017,62.62946 -62.62946,62.62946 -34.5893,0 -62.62946,-28.04016 -62.62946,-62.62946 0,-34.5893 28.04016,-62.62946 62.62946,-62.62946 34.58929,0 62.62946,28.04016 62.62946,62.62946 z"
         sodipodi:ry="62.629459"
         sodipodi:rx="62.629459"
         sodipodi:cy="238.17923"
         sodipodi:cx="189.90868"
         id="path3924"
         style="fill:none;stroke:#000000;stroke-width:5.18818617;stroke-miterlimit:4;stroke-opacity:1;stroke-dasharray:none"
         sodipodi:type="arc" />
    </g>
    <g
       id="g3942"
       transform="matrix(1.1060635,0,0,1.1070924,87.127539,303.19086)">
      <g
         transform="translate(-29.457586,89.62368)"
         id="g3944">
        <path
           sodipodi:type="arc"
           style="fill:none;stroke:#000000;stroke-width:5.18818617;stroke-miterlimit:4;stroke-opacity:1;stroke-dasharray:none"
           id="path3946"
           sodipodi:cx="189.90868"
           sodipodi:cy="238.17923"
           sodipodi:rx="62.629459"
           sodipodi:ry="62.629459"
           d="m 252.53814,238.17923 c 0,34.5893 -28.04017,62.62946 -62.62946,62.62946 -34.5893,0 -62.62946,-28.04016 -62.62946,-62.62946 0,-34.5893 28.04016,-62.62946 62.62946,-62.62946 34.58929,0 62.62946,28.04016 62.62946,62.62946 z"
           transform="matrix(0.34835829,0,0,0.34836842,404.84914,-2.4497151)" />
        <text
           transform="scale(0.99998549,1.0000145)"
           sodipodi:linespacing="125%"
           id="text3948"
           y="86.072975"
           x="462.11996"
           style="font-size:15.24601936px;font-style:normal;font-weight:normal;line-height:125%;letter-spacing:0px;word-spacing:0px;fill:#000000;fill-opacity:1;stroke:none;font-family:Sans;-inkscape-font-specification:Sans"
           xml:space="preserve"><tspan
             y="86.072975"
             x="462.11996"
             id="tspan3950"
             sodipodi:role="line">Cr</tspan></text>
      </g>
    </g>
    <g
       id="g3963"
       transform="matrix(1.1060635,0,0,1.1070924,-16.917221,310.32476)">
      <g
         transform="translate(-37.274119,-207.08127)"
         id="g3958">
        <path
           transform="matrix(0.34835829,0,0,0.34836842,407.88156,176.36884)"
           d="m 252.53814,238.17923 c 0,34.5893 -28.04017,62.62946 -62.62946,62.62946 -34.5893,0 -62.62946,-28.04016 -62.62946,-62.62946 0,-34.5893 28.04016,-62.62946 62.62946,-62.62946 34.58929,0 62.62946,28.04016 62.62946,62.62946 z"
           sodipodi:ry="62.629459"
           sodipodi:rx="62.629459"
           sodipodi:cy="238.17923"
           sodipodi:cx="189.90868"
           id="path3952"
           style="fill:none;stroke:#000000;stroke-width:5.18818617;stroke-miterlimit:4;stroke-opacity:1;stroke-dasharray:none"
           sodipodi:type="arc" />
        <text
           transform="scale(0.9999855,1.0000145)"
           sodipodi:linespacing="125%"
           id="text3954"
           y="265.02292"
           x="464.78781"
           style="font-size:15.24601936px;font-style:normal;font-weight:normal;line-height:125%;letter-spacing:0px;word-spacing:0px;fill:#000000;fill-opacity:1;stroke:none;font-family:Sans;-inkscape-font-specification:Sans"
           xml:space="preserve"><tspan
             y="265.02292"
             x="464.78781"
             id="tspan3956"
             sodipodi:role="line">Of</tspan></text>
      </g>
    </g>
    <g
       id="g3979"
       transform="matrix(1.1060635,0,0,1.1070924,92.419088,310.32476)">
      <g
         transform="translate(-37.274119,-207.08127)"
         id="g3981">
        <path
           transform="matrix(0.34835829,0,0,0.34836842,407.88156,176.36884)"
           d="m 252.53814,238.17923 c 0,34.5893 -28.04017,62.62946 -62.62946,62.62946 -34.5893,0 -62.62946,-28.04016 -62.62946,-62.62946 0,-34.5893 28.04016,-62.62946 62.62946,-62.62946 34.58929,0 62.62946,28.04016 62.62946,62.62946 z"
           sodipodi:ry="62.629459"
           sodipodi:rx="62.629459"
           sodipodi:cy="238.17923"
           sodipodi:cx="189.90868"
           id="path3983"
           style="fill:none;stroke:#000000;stroke-width:5.18818617;stroke-miterlimit:4;stroke-opacity:1;stroke-dasharray:none"
           sodipodi:type="arc" />
        <text
           transform="scale(0.9999855,1.0000145)"
           sodipodi:linespacing="125%"
           id="text3985"
           y="265.02292"
           x="464.78781"
           style="font-size:15.24601936px;font-style:normal;font-weight:normal;line-height:125%;letter-spacing:0px;word-spacing:0px;fill:#000000;fill-opacity:1;stroke:none;font-family:Sans;-inkscape-font-specification:Sans"
           xml:space="preserve"><tspan
             y="265.02292"
             x="464.78781"
             id="tspan3987"
             sodipodi:role="line">Of</tspan></text>
      </g>
    </g>
    <g
       transform="matrix(1.1060635,0,0,1.1070924,0.0015545,317.32593)"
       id="g3989">
      <text
         transform="scale(0.9999855,1.0000145)"
         sodipodi:linespacing="125%"
         id="text3991"
         y="106.68049"
         x="460.31992"
         style="font-size:15.24601936px;font-style:normal;font-weight:normal;line-height:125%;letter-spacing:0px;word-spacing:0px;fill:#000000;fill-opacity:1;stroke:none;font-family:Sans;-inkscape-font-specification:Sans"
         xml:space="preserve"><tspan
           y="106.68049"
           x="460.31992"
           id="tspan3993"
           sodipodi:role="line">Dw</tspan></text>
      <path
         sodipodi:type="arc"
         style="fill:none;stroke:#000000;stroke-width:5.18818617;stroke-miterlimit:4;stroke-opacity:1;stroke-dasharray:none"
         id="path3995"
         sodipodi:cx="189.90868"
         sodipodi:cy="238.17923"
         sodipodi:rx="62.629459"
         sodipodi:ry="62.629459"
         d="m 252.53814,238.17923 c 0,34.5893 -28.04017,62.62946 -62.62946,62.62946 -34.5893,0 -62.62946,-28.04016 -62.62946,-62.62946 0,-34.5893 28.04016,-62.62946 62.62946,-62.62946 34.58929,0 62.62946,28.04016 62.62946,62.62946 z"
         transform="matrix(0.34835829,0,0,0.34836842,406.68562,18.150659)" />
    </g>
    <path
       sodipodi:type="arc"
       id="path4022"
       style="fill:#000000;stroke:none"
       sodipodi:cx="443.69067"
       sodipodi:cy="93.622528"
       sodipodi:rx="1.5"
       sodipodi:ry="1.5"
       d="m 445.19067,93.622528 a 1.5,1.5 0 1 1 -3,0 1.5,1.5 0 1 1 3,0 z"
       transform="matrix(1.1060635,0,0,1.1070924,-24.57889,288.68917)" />
    <path
       style="fill:none;stroke:#000000;stroke-width:0.99999994px;stroke-linecap:butt;stroke-linejoin:miter;stroke-opacity:1"
       d="m 480.8284,387.37341 26.10976,23.87499"
       id="path4032"
       inkscape:path-effect="#path-effect4034"
       inkscape:original-d="m 480.8284,387.37341 26.10976,23.87499"
       inkscape:connector-curvature="0" />
    <path
       style="fill:none;stroke:#000000;stroke-width:0.99999994px;stroke-linecap:butt;stroke-linejoin:miter;stroke-opacity:1"
       d="m 562.09783,388.26827 -22.47106,23.51088"
       id="path4036"
       inkscape:path-effect="#path-effect4038"
       inkscape:original-d="m 562.09783,388.26827 -22.47106,23.51088"
       inkscape:connector-curvature="0" />
    <path
       style="fill:none;stroke:#000000;stroke-width:0.99999994px;stroke-linecap:butt;stroke-linejoin:miter;stroke-opacity:1"
       d="m 506.7288,447.1233 -29.94557,22.73746"
       id="path4040"
       inkscape:path-effect="#path-effect4042"
       inkscape:original-d="m 506.7288,447.1233 -29.94557,22.73746"
       inkscape:connector-curvature="0" />
    <path
       style="fill:none;stroke:#000000;stroke-width:0.99999994px;stroke-linecap:butt;stroke-linejoin:miter;stroke-opacity:1"
       d="m 537.9224,448.26022 21.97531,24.87909"
       id="path4044"
       inkscape:path-effect="#path-effect4046"
       inkscape:original-d="m 537.9224,448.26022 21.97531,24.87909"
       inkscape:connector-curvature="0" />
    <path
       style="fill:none;stroke:#000000;stroke-width:0.99999994px;stroke-linecap:butt;stroke-linejoin:miter;stroke-opacity:1"
       d="m 462.87885,515.49225 1.55519,33.25276"
       id="path4048"
       inkscape:path-effect="#path-effect4050"
       inkscape:original-d="m 462.87885,515.49225 1.55519,33.25276"
       inkscape:connector-curvature="0" />
    <path
       style="fill:none;stroke:#000000;stroke-width:0.99999994px;stroke-linecap:butt;stroke-linejoin:miter;stroke-opacity:1"
       d="m 442.05098,573.58555 -39.27242,-1.56548"
       id="path4052"
       inkscape:path-effect="#path-effect4054"
       inkscape:original-d="m 442.05098,573.58555 -39.27242,-1.56548"
       inkscape:connector-curvature="0" />
    <path
       style="fill:none;stroke:#000000;stroke-width:0.99999994px;stroke-linecap:butt;stroke-linejoin:miter;stroke-opacity:1"
       d="m 573.53755,515.63586 0.29121,33.10504"
       id="path4056"
       inkscape:path-effect="#path-effect4058"
       inkscape:original-d="m 573.53755,515.63586 0.29121,33.10504"
       inkscape:connector-curvature="0" />
    <path
       style="fill:none;stroke:#000000;stroke-width:0.99999994px;stroke-linecap:butt;stroke-linejoin:miter;stroke-opacity:1"
       d="m 599.63901,572.82204 44.78369,0.77168"
       id="path4060"
       inkscape:path-effect="#path-effect4062"
       inkscape:original-d="m 599.63901,572.82204 44.78369,0.77168"
       inkscape:connector-curvature="0" />
    <g
       transform="matrix(1.1060635,0,0,1.1070924,367.31821,483.69011)"
       id="g4064">
      <path
         sodipodi:type="arc"
         style="fill:none;stroke:#000000;stroke-width:5.18818617;stroke-miterlimit:4;stroke-opacity:1;stroke-dasharray:none"
         id="path4066"
         sodipodi:cx="189.90868"
         sodipodi:cy="238.17923"
         sodipodi:rx="62.629459"
         sodipodi:ry="62.629459"
         d="m 252.53814,238.17923 c 0,34.5893 -28.04017,62.62946 -62.62946,62.62946 -34.5893,0 -62.62946,-28.04016 -62.62946,-62.62946 0,-34.5893 28.04016,-62.62946 62.62946,-62.62946 34.58929,0 62.62946,28.04016 62.62946,62.62946 z"
         transform="matrix(0.34835829,0,0,0.34836842,404.84914,-2.4497151)" />
      <text
         transform="scale(0.99998549,1.0000145)"
         sodipodi:linespacing="125%"
         id="text4068"
         y="86.072975"
         x="462.11996"
         style="font-size:15.24601936px;font-style:normal;font-weight:normal;line-height:125%;letter-spacing:0px;word-spacing:0px;fill:#000000;fill-opacity:1;stroke:none;font-family:Sans;-inkscape-font-specification:Sans"
         xml:space="preserve"><tspan
           y="86.072975"
           x="462.11996"
           id="tspan4070"
           sodipodi:role="line">Cr</tspan></text>
    </g>
    <g
       transform="matrix(1.1060635,0,0,1.1070924,399.90017,322.4379)"
       id="g4072">
      <g
         transform="translate(-29.457586,89.62368)"
         id="g4074">
        <path
           sodipodi:type="arc"
           style="fill:none;stroke:#000000;stroke-width:5.18818617;stroke-miterlimit:4;stroke-opacity:1;stroke-dasharray:none"
           id="path4076"
           sodipodi:cx="189.90868"
           sodipodi:cy="238.17923"
           sodipodi:rx="62.629459"
           sodipodi:ry="62.629459"
           d="m 252.53814,238.17923 c 0,34.5893 -28.04017,62.62946 -62.62946,62.62946 -34.5893,0 -62.62946,-28.04016 -62.62946,-62.62946 0,-34.5893 28.04016,-62.62946 62.62946,-62.62946 34.58929,0 62.62946,28.04016 62.62946,62.62946 z"
           transform="matrix(0.34835829,0,0,0.34836842,404.84914,-2.4497151)" />
        <text
           transform="scale(0.99998549,1.0000145)"
           sodipodi:linespacing="125%"
           id="text4078"
           y="86.072975"
           x="462.11996"
           style="font-size:15.24601936px;font-style:normal;font-weight:normal;line-height:125%;letter-spacing:0px;word-spacing:0px;fill:#000000;fill-opacity:1;stroke:none;font-family:Sans;-inkscape-font-specification:Sans"
           xml:space="preserve"><tspan
             y="86.072975"
             x="462.11996"
             id="tspan4080"
             sodipodi:role="line">Cr</tspan></text>
      </g>
    </g>
    <g
       transform="matrix(1.1060635,0,0,1.1070924,399.90017,260.68047)"
       id="g4082">
      <g
         id="g4084"
         transform="translate(-29.457586,89.62368)">
        <path
           transform="matrix(0.34835829,0,0,0.34836842,404.84914,-2.4497151)"
           d="m 252.53814,238.17923 c 0,34.5893 -28.04017,62.62946 -62.62946,62.62946 -34.5893,0 -62.62946,-28.04016 -62.62946,-62.62946 0,-34.5893 28.04016,-62.62946 62.62946,-62.62946 34.58929,0 62.62946,28.04016 62.62946,62.62946 z"
           sodipodi:ry="62.629459"
           sodipodi:rx="62.629459"
           sodipodi:cy="238.17923"
           sodipodi:cx="189.90868"
           id="path4086"
           style="fill:none;stroke:#000000;stroke-width:5.18818617;stroke-miterlimit:4;stroke-opacity:1;stroke-dasharray:none"
           sodipodi:type="arc" />
        <text
           xml:space="preserve"
           style="font-size:15.24601936px;font-style:normal;font-weight:normal;line-height:125%;letter-spacing:0px;word-spacing:0px;fill:#000000;fill-opacity:1;stroke:none;font-family:Sans;-inkscape-font-specification:Sans"
           x="462.11996"
           y="86.072975"
           id="text4088"
           sodipodi:linespacing="125%"
           transform="scale(0.99998549,1.0000145)"><tspan
             sodipodi:role="line"
             id="tspan4090"
             x="462.11996"
             y="86.072975">Cr</tspan></text>
      </g>
    </g>
    <g
       id="g4092"
       transform="matrix(1.1060635,0,0,1.1070924,399.90017,194.60709)">
      <g
         transform="translate(-29.457586,89.62368)"
         id="g4094">
        <path
           sodipodi:type="arc"
           style="fill:none;stroke:#000000;stroke-width:5.18818617;stroke-miterlimit:4;stroke-opacity:1;stroke-dasharray:none"
           id="path4096"
           sodipodi:cx="189.90868"
           sodipodi:cy="238.17923"
           sodipodi:rx="62.629459"
           sodipodi:ry="62.629459"
           d="m 252.53814,238.17923 c 0,34.5893 -28.04017,62.62946 -62.62946,62.62946 -34.5893,0 -62.62946,-28.04016 -62.62946,-62.62946 0,-34.5893 28.04016,-62.62946 62.62946,-62.62946 34.58929,0 62.62946,28.04016 62.62946,62.62946 z"
           transform="matrix(0.34835829,0,0,0.34836842,404.84914,-2.4497151)" />
        <text
           transform="scale(0.99998549,1.0000145)"
           sodipodi:linespacing="125%"
           id="text4098"
           y="86.072975"
           x="462.11996"
           style="font-size:15.24601936px;font-style:normal;font-weight:normal;line-height:125%;letter-spacing:0px;word-spacing:0px;fill:#000000;fill-opacity:1;stroke:none;font-family:Sans;-inkscape-font-specification:Sans"
           xml:space="preserve"><tspan
             y="86.072975"
             x="462.11996"
             id="tspan4100"
             sodipodi:role="line">Cr</tspan></text>
      </g>
    </g>
    <g
       transform="matrix(1.1060635,0,0,1.1070924,849.84939,492.17198)"
       id="g4102">
      <path
         transform="matrix(0.34835829,0,0,0.34836842,30.169834,-11.16972)"
         d="m 252.53814,238.17923 c 0,34.5893 -28.04017,62.62946 -62.62946,62.62946 -34.5893,0 -62.62946,-28.04016 -62.62946,-62.62946 0,-34.5893 28.04016,-62.62946 62.62946,-62.62946 34.58929,0 62.62946,28.04016 62.62946,62.62946 z"
         sodipodi:ry="62.629459"
         sodipodi:rx="62.629459"
         sodipodi:cy="238.17923"
         sodipodi:cx="189.90868"
         id="path4104"
         style="fill:none;stroke:#000000;stroke-width:5.18818617;stroke-miterlimit:4;stroke-opacity:1;stroke-dasharray:none"
         sodipodi:type="arc" />
      <text
         transform="scale(0.99998548,1.0000145)"
         sodipodi:linespacing="125%"
         id="text4106"
         y="77.252609"
         x="86.374397"
         style="font-size:15.24601936px;font-style:normal;font-weight:normal;line-height:125%;letter-spacing:0px;word-spacing:0px;fill:#000000;fill-opacity:1;stroke:none;font-family:Sans;-inkscape-font-specification:Sans"
         xml:space="preserve"><tspan
           y="77.252609"
           x="86.374397"
           id="tspan4108"
           sodipodi:role="line">Ba</tspan></text>
    </g>
    <g
       transform="matrix(1.1060635,0,0,1.1070924,431.62991,337.09567)"
       id="g4110">
      <text
         transform="scale(0.9999855,1.0000145)"
         sodipodi:linespacing="125%"
         id="text4112"
         y="106.68049"
         x="460.31992"
         style="font-size:15.24601936px;font-style:normal;font-weight:normal;line-height:125%;letter-spacing:0px;word-spacing:0px;fill:#000000;fill-opacity:1;stroke:none;font-family:Sans;-inkscape-font-specification:Sans"
         xml:space="preserve"><tspan
           y="106.68049"
           x="460.31992"
           id="tspan4114"
           sodipodi:role="line">Dw</tspan></text>
      <path
         sodipodi:type="arc"
         style="fill:none;stroke:#000000;stroke-width:5.18818617;stroke-miterlimit:4;stroke-opacity:1;stroke-dasharray:none"
         id="path4116"
         sodipodi:cx="189.90868"
         sodipodi:cy="238.17923"
         sodipodi:rx="62.629459"
         sodipodi:ry="62.629459"
         d="m 252.53814,238.17923 c 0,34.5893 -28.04017,62.62946 -62.62946,62.62946 -34.5893,0 -62.62946,-28.04016 -62.62946,-62.62946 0,-34.5893 28.04016,-62.62946 62.62946,-62.62946 34.58929,0 62.62946,28.04016 62.62946,62.62946 z"
         transform="matrix(0.34835829,0,0,0.34836842,406.68562,18.150659)" />
    </g>
    <g
       transform="matrix(1.1060635,0,0,1.1070924,537.87745,391.19161)"
       id="g4118">
      <g
         id="g4120"
         transform="translate(-37.274119,-207.08127)">
        <path
           sodipodi:type="arc"
           style="fill:none;stroke:#000000;stroke-width:5.18818617;stroke-miterlimit:4;stroke-opacity:1;stroke-dasharray:none"
           id="path4122"
           sodipodi:cx="189.90868"
           sodipodi:cy="238.17923"
           sodipodi:rx="62.629459"
           sodipodi:ry="62.629459"
           d="m 252.53814,238.17923 c 0,34.5893 -28.04017,62.62946 -62.62946,62.62946 -34.5893,0 -62.62946,-28.04016 -62.62946,-62.62946 0,-34.5893 28.04016,-62.62946 62.62946,-62.62946 34.58929,0 62.62946,28.04016 62.62946,62.62946 z"
           transform="matrix(0.34835829,0,0,0.34836842,407.88156,176.36884)" />
        <text
           xml:space="preserve"
           style="font-size:15.24601936px;font-style:normal;font-weight:normal;line-height:125%;letter-spacing:0px;word-spacing:0px;fill:#000000;fill-opacity:1;stroke:none;font-family:Sans;-inkscape-font-specification:Sans"
           x="464.78781"
           y="265.02292"
           id="text4124"
           sodipodi:linespacing="125%"
           transform="scale(0.9999855,1.0000145)"><tspan
             sodipodi:role="line"
             id="tspan4126"
             x="464.78781"
             y="265.02292">Of</tspan></text>
      </g>
    </g>
    <g
       id="g4128"
       transform="matrix(1.1060635,0,0,1.1070924,279.86593,325.11823)">
      <g
         transform="translate(-37.274119,-207.08127)"
         id="g4130">
        <path
           transform="matrix(0.34835829,0,0,0.34836842,407.88156,176.36884)"
           d="m 252.53814,238.17923 c 0,34.5893 -28.04017,62.62946 -62.62946,62.62946 -34.5893,0 -62.62946,-28.04016 -62.62946,-62.62946 0,-34.5893 28.04016,-62.62946 62.62946,-62.62946 34.58929,0 62.62946,28.04016 62.62946,62.62946 z"
           sodipodi:ry="62.629459"
           sodipodi:rx="62.629459"
           sodipodi:cy="238.17923"
           sodipodi:cx="189.90868"
           id="path4132"
           style="fill:none;stroke:#000000;stroke-width:5.18818617;stroke-miterlimit:4;stroke-opacity:1;stroke-dasharray:none"
           sodipodi:type="arc" />
        <text
           transform="scale(0.9999855,1.0000145)"
           sodipodi:linespacing="125%"
           id="text4134"
           y="265.02292"
           x="464.78781"
           style="font-size:15.24601936px;font-style:normal;font-weight:normal;line-height:125%;letter-spacing:0px;word-spacing:0px;fill:#000000;fill-opacity:1;stroke:none;font-family:Sans;-inkscape-font-specification:Sans"
           xml:space="preserve"><tspan
             y="265.02292"
             x="464.78781"
             id="tspan4136"
             sodipodi:role="line">Of</tspan></text>
      </g>
    </g>
    <g
       id="g4138"
       transform="matrix(1.1060635,0,0,1.1070924,302.62402,271.02227)">
      <text
         xml:space="preserve"
         style="font-size:15.24601936px;font-style:normal;font-weight:normal;line-height:125%;letter-spacing:0px;word-spacing:0px;fill:#000000;fill-opacity:1;stroke:none;font-family:Sans;-inkscape-font-specification:Sans"
         x="460.31992"
         y="106.68049"
         id="text4140"
         sodipodi:linespacing="125%"
         transform="scale(0.9999855,1.0000145)"><tspan
           sodipodi:role="line"
           id="tspan4142"
           x="460.31992"
           y="106.68049">Dw</tspan></text>
      <path
         transform="matrix(0.34835829,0,0,0.34836842,406.68562,18.150659)"
         d="m 252.53814,238.17923 c 0,34.5893 -28.04017,62.62946 -62.62946,62.62946 -34.5893,0 -62.62946,-28.04016 -62.62946,-62.62946 0,-34.5893 28.04016,-62.62946 62.62946,-62.62946 34.58929,0 62.62946,28.04016 62.62946,62.62946 z"
         sodipodi:ry="62.629459"
         sodipodi:rx="62.629459"
         sodipodi:cy="238.17923"
         sodipodi:cx="189.90868"
         id="path4144"
         style="fill:none;stroke:#000000;stroke-width:5.18818617;stroke-miterlimit:4;stroke-opacity:1;stroke-dasharray:none"
         sodipodi:type="arc" />
    </g>
    <g
       transform="matrix(1.1060635,0,0,1.1070924,279.86593,391.19161)"
       id="g4146">
      <g
         id="g4148"
         transform="translate(-37.274119,-207.08127)">
        <path
           sodipodi:type="arc"
           style="fill:none;stroke:#000000;stroke-width:5.18818617;stroke-miterlimit:4;stroke-opacity:1;stroke-dasharray:none"
           id="path4150"
           sodipodi:cx="189.90868"
           sodipodi:cy="238.17923"
           sodipodi:rx="62.629459"
           sodipodi:ry="62.629459"
           d="m 252.53814,238.17923 c 0,34.5893 -28.04017,62.62946 -62.62946,62.62946 -34.5893,0 -62.62946,-28.04016 -62.62946,-62.62946 0,-34.5893 28.04016,-62.62946 62.62946,-62.62946 34.58929,0 62.62946,28.04016 62.62946,62.62946 z"
           transform="matrix(0.34835829,0,0,0.34836842,407.88156,176.36884)" />
        <text
           xml:space="preserve"
           style="font-size:15.24601936px;font-style:normal;font-weight:normal;line-height:125%;letter-spacing:0px;word-spacing:0px;fill:#000000;fill-opacity:1;stroke:none;font-family:Sans;-inkscape-font-specification:Sans"
           x="464.78781"
           y="265.02292"
           id="text4152"
           sodipodi:linespacing="125%"
           transform="scale(0.9999855,1.0000145)"><tspan
             sodipodi:role="line"
             id="tspan4154"
             x="464.78781"
             y="265.02292">Of</tspan></text>
      </g>
    </g>
    <path
       style="fill:none;stroke:#000000;stroke-width:0.99999994px;stroke-linecap:butt;stroke-linejoin:miter;stroke-opacity:1"
       d="m 888.29692,549.86924 0,-14.90702 0,0"
       id="path4188"
       inkscape:path-effect="#path-effect4190"
       inkscape:original-d="m 888.29692,549.86924 0,-14.90702 0,0"
       inkscape:connector-curvature="0" />
    <path
       style="fill:none;stroke:#000000;stroke-width:0.99999994px;stroke-linecap:butt;stroke-linejoin:miter;stroke-opacity:1"
       d="m 887.47141,487.30105 0,-14.10956"
       id="path4192"
       inkscape:path-effect="#path-effect4194"
       inkscape:original-d="m 887.47141,487.30105 0,-14.10956"
       inkscape:connector-curvature="0" />
    <path
       style="fill:none;stroke:#000000;stroke-width:0.99999994px;stroke-linecap:butt;stroke-linejoin:miter;stroke-opacity:1"
       d="m 887.05863,423.90417 0,-16.80317"
       id="path4196"
       inkscape:path-effect="#path-effect4198"
       inkscape:original-d="m 887.05863,423.90417 0,-16.80317"
       inkscape:connector-curvature="0" />
    <path
       style="fill:none;stroke:#000000;stroke-width:0.99999994px;stroke-linecap:butt;stroke-linejoin:miter;stroke-opacity:1"
       d="m 863.94386,384.12573 -14.22197,0"
       id="path4200"
       inkscape:path-effect="#path-effect4202"
       inkscape:original-d="m 863.94386,384.12573 -14.22197,0"
       inkscape:connector-curvature="0" />
    <path
       style="fill:none;stroke:#000000;stroke-width:0.99999994px;stroke-linecap:butt;stroke-linejoin:miter;stroke-opacity:1"
       d="m 800.79096,383.71137 -13.71606,0"
       id="path4204"
       inkscape:path-effect="#path-effect4206"
       inkscape:original-d="m 800.79096,383.71137 -13.71606,0"
       inkscape:connector-curvature="0" />
    <path
       style="fill:none;stroke:#000000;stroke-width:0.99999994px;stroke-linecap:butt;stroke-linejoin:miter;stroke-opacity:1"
       d="m 761.16561,406.5011 0,18.45969"
       id="path4208"
       inkscape:path-effect="#path-effect4210"
       inkscape:original-d="m 761.16561,406.5011 0,18.45969"
       inkscape:connector-curvature="0" />
    <path
       style="fill:none;stroke:#000000;stroke-width:0.99999994px;stroke-linecap:butt;stroke-linejoin:miter;stroke-opacity:1"
       d="m 815.2377,404.01495 -31.92981,32.05319"
       id="path4212"
       inkscape:path-effect="#path-effect4214"
       inkscape:original-d="m 815.2377,404.01495 -31.92981,32.05319"
       inkscape:connector-curvature="0" />
    <path
       style="fill:none;stroke:#000000;stroke-width:0.99999994px;stroke-linecap:butt;stroke-linejoin:miter;stroke-opacity:1"
       d="m 911.82447,450.42312 18.70539,0"
       id="path4216"
       inkscape:path-effect="#path-effect4218"
       inkscape:original-d="m 911.82447,450.42312 18.70539,0"
       inkscape:connector-curvature="0" />
    <path
       style="fill:none;stroke:#000000;stroke-width:0.99999994px;stroke-linecap:butt;stroke-linejoin:miter;stroke-opacity:1"
       d="m 978.27949,450.42312 18.59315,0"
       id="path4220"
       inkscape:path-effect="#path-effect4222"
       inkscape:original-d="m 978.27949,450.42312 18.59315,0"
       inkscape:connector-curvature="0" />
    <path
       style="fill:none;stroke:#000000;stroke-width:0.99999994px;stroke-linecap:butt;stroke-linejoin:miter;stroke-opacity:1"
       d="M 907.69684,525.42204 938.08536,555.928"
       id="path4224"
       inkscape:path-effect="#path-effect4226"
       inkscape:original-d="M 907.69684,525.42204 938.08536,555.928"
       inkscape:connector-curvature="0" />
    <path
       style="fill:none;stroke:#000000;stroke-width:0.99999994px;stroke-linecap:butt;stroke-linejoin:miter;stroke-opacity:1"
       d="m 912.23725,573.48767 20.09099,0"
       id="path4228"
       inkscape:path-effect="#path-effect4230"
       inkscape:original-d="m 912.23725,573.48767 20.09099,0"
       inkscape:connector-curvature="0" />
  </g>
</svg>
